# xmcd
#
# Track frame offsets:
# 150
# 14290
# 28527
# 39135
# 48612
# 63015
# 74062
# 83120
# 95725
# 106777
# 122645
# 133867
# 147727
# 162915
# 173280
# 185330
# 198912
# 211647
# 230192
# 245635
# 264812
# 281502
# 298787
# 312940
#
# Disc length: 4298 seconds
#
#
# Revision: 0
# Processed by: cddbd v1.5.2PL0 Copyright (c) Steve Scherf et al.
# Submitted via: FreeRIP 2.951 
#
DISCID=5710c818
DTITLE=Trio Parada Dura - Casa da Avenida - Blusa Vermelha
DYEAR=1979
DGENRE=Sertanejo
TTITLE0=Fruto do amor
TTITLE1=Boi tufão
TTITLE2=Meu natal sem papaizinho
TTITLE3=Eu não sou sapato seu
TTITLE4=Pai Joaquim
TTITLE5=Trem doido
TTITLE6=Casa da avenida
TTITLE7=Coração prisioneiro
TTITLE8=O amor é um mistério
TTITLE9=O fazendeiro e o Santo Reis
TTITLE10=Não diga a verdade
TTITLE11=Paineira velha
TTITLE12=Blusa vermelha
TTITLE13=Sincero amor
TTITLE14=Avião das nove
TTITLE15=Droga de vida
TTITLE16=Somente agora eu vejo
TTITLE17=A moça do carro de boi
TTITLE18=Não quero piedade
TTITLE19=A vaquinha
TTITLE20=Endereço da felicidade
TTITLE21=Palco do mundo
TTITLE22=Dilema de amor
TTITLE23=A hora não importa
EXTD=
EXTT0=
EXTT1=
EXTT2=
EXTT3=
EXTT4=
EXTT5=
EXTT6=
EXTT7=
EXTT8=
EXTT9=
EXTT10=
EXTT11=
EXTT12=
EXTT13=
EXTT14=
EXTT15=
EXTT16=
EXTT17=
EXTT18=
EXTT19=
EXTT20=
EXTT21=
EXTT22=
EXTT23=
PLAYORDER=
